<?xml version="1.0" encoding="UTF-8" standalone="no"?>
<svg
   xmlns:dc="http://purl.org/dc/elements/1.1/"
   xmlns:cc="http://creativecommons.org/ns#"
   xmlns:rdf="http://www.w3.org/1999/02/22-rdf-syntax-ns#"
   xmlns:svg="http://www.w3.org/2000/svg"
   xmlns="http://www.w3.org/2000/svg"
   xmlns:sodipodi="http://sodipodi.sourceforge.net/DTD/sodipodi-0.dtd"
   xmlns:inkscape="http://www.inkscape.org/namespaces/inkscape"
   version="1.1"
   id="svg2"
   xml:space="preserve"
   width="1122.52"
   height="793.70135"
   viewBox="0 0 1122.52 793.70135"
   sodipodi:docname="빅웨이브-로고.ai"><metadata
     id="metadata8"><rdf:RDF><cc:Work
         rdf:about=""><dc:format>image/svg+xml</dc:format><dc:type
           rdf:resource="http://purl.org/dc/dcmitype/StillImage" /></cc:Work></rdf:RDF></metadata><defs
     id="defs6"><linearGradient
       x1="0"
       y1="0"
       x2="1"
       y2="0"
       gradientUnits="userSpaceOnUse"
       gradientTransform="matrix(94.892776,132.17212,132.17212,-94.892776,267.24405,442.30637)"
       spreadMethod="pad"
       id="linearGradient30"><stop
         style="stop-opacity:1;stop-color:#253689"
         offset="0"
         id="stop24" /><stop
         style="stop-opacity:1;stop-color:#2e509f"
         offset="0.998636"
         id="stop26" /><stop
         style="stop-opacity:1;stop-color:#2e509f"
         offset="1"
         id="stop28" /></linearGradient><linearGradient
       x1="0"
       y1="0"
       x2="1"
       y2="0"
       gradientUnits="userSpaceOnUse"
       gradientTransform="matrix(68.295357,95.125702,95.125702,-68.295357,294.15533,416.8652)"
       spreadMethod="pad"
       id="linearGradient52"><stop
         style="stop-opacity:1;stop-color:#253689"
         offset="0"
         id="stop46" /><stop
         style="stop-opacity:1;stop-color:#2e509f"
         offset="0.998636"
         id="stop48" /><stop
         style="stop-opacity:1;stop-color:#2e509f"
         offset="1"
         id="stop50" /></linearGradient><linearGradient
       x1="0"
       y1="0"
       x2="1"
       y2="0"
       gradientUnits="userSpaceOnUse"
       gradientTransform="matrix(94.892532,132.17178,132.17178,-94.892532,316.81039,406.72025)"
       spreadMethod="pad"
       id="linearGradient74"><stop
         style="stop-opacity:1;stop-color:#253689"
         offset="0"
         id="stop68" /><stop
         style="stop-opacity:1;stop-color:#2e509f"
         offset="0.998636"
         id="stop70" /><stop
         style="stop-opacity:1;stop-color:#2e509f"
         offset="1"
         id="stop72" /></linearGradient><linearGradient
       x1="0"
       y1="0"
       x2="1"
       y2="0"
       gradientUnits="userSpaceOnUse"
       gradientTransform="matrix(94.892731,132.17206,132.17206,-94.892731,416.50647,335.14331)"
       spreadMethod="pad"
       id="linearGradient96"><stop
         style="stop-opacity:1;stop-color:#253689"
         offset="0"
         id="stop90" /><stop
         style="stop-opacity:1;stop-color:#2e509f"
         offset="0.998636"
         id="stop92" /><stop
         style="stop-opacity:1;stop-color:#2e509f"
         offset="1"
         id="stop94" /></linearGradient><linearGradient
       x1="0"
       y1="0"
       x2="1"
       y2="0"
       gradientUnits="userSpaceOnUse"
       gradientTransform="matrix(94.892479,132.17171,132.17171,-94.892479,441.96982,316.86261)"
       spreadMethod="pad"
       id="linearGradient118"><stop
         style="stop-opacity:1;stop-color:#253689"
         offset="0"
         id="stop112" /><stop
         style="stop-opacity:1;stop-color:#2e509f"
         offset="0.998636"
         id="stop114" /><stop
         style="stop-opacity:1;stop-color:#2e509f"
         offset="1"
         id="stop116" /></linearGradient><linearGradient
       x1="0"
       y1="0"
       x2="1"
       y2="0"
       gradientUnits="userSpaceOnUse"
       gradientTransform="matrix(94.892708,132.17203,132.17203,-94.892708,478.75644,290.45074)"
       spreadMethod="pad"
       id="linearGradient140"><stop
         style="stop-opacity:1;stop-color:#253689"
         offset="0"
         id="stop134" /><stop
         style="stop-opacity:1;stop-color:#2e509f"
         offset="0.998636"
         id="stop136" /><stop
         style="stop-opacity:1;stop-color:#2e509f"
         offset="1"
         id="stop138" /></linearGradient><linearGradient
       x1="0"
       y1="0"
       x2="1"
       y2="0"
       gradientUnits="userSpaceOnUse"
       gradientTransform="matrix(94.892387,132.17157,132.17157,-94.892387,375.55679,364.54333)"
       spreadMethod="pad"
       id="linearGradient162"><stop
         style="stop-opacity:1;stop-color:#253689"
         offset="0"
         id="stop156" /><stop
         style="stop-opacity:1;stop-color:#2e509f"
         offset="0.998636"
         id="stop158" /><stop
         style="stop-opacity:1;stop-color:#2e509f"
         offset="1"
         id="stop160" /></linearGradient><clipPath
       clipPathUnits="userSpaceOnUse"
       id="clipPath172"><path
         d="M 0,595.276 H 841.89 V 0 H 0 Z"
         id="path170" /></clipPath><linearGradient
       x1="0"
       y1="0"
       x2="1"
       y2="0"
       gradientUnits="userSpaceOnUse"
       gradientTransform="matrix(841.88977,0,0,-841.88977,0,148.81889)"
       spreadMethod="pad"
       id="linearGradient196"><stop
         style="stop-opacity:1;stop-color:#253689"
         offset="0"
         id="stop190" /><stop
         style="stop-opacity:1;stop-color:#2e509f"
         offset="0.998636"
         id="stop192" /><stop
         style="stop-opacity:1;stop-color:#2e509f"
         offset="1"
         id="stop194" /></linearGradient><clipPath
       clipPathUnits="userSpaceOnUse"
       id="clipPath206"><path
         d="M 0,595.276 H 841.89 V 0 H 0 Z"
         id="path204" /></clipPath></defs><sodipodi:namedview
     pagecolor="#ffffff"
     bordercolor="#666666"
     borderopacity="1"
     objecttolerance="10"
     gridtolerance="10"
     guidetolerance="10"
     inkscape:pageopacity="0"
     inkscape:pageshadow="2"
     inkscape:window-width="640"
     inkscape:window-height="480"
     id="namedview4" /><g
     id="g10"
     inkscape:groupmode="layer"
     inkscape:label="빅웨이브-로고"
     transform="matrix(1.3333333,0,0,-1.3333333,0,793.70133)"><g
       id="g12"><g
         id="g14"><g
           id="g20"><g
             id="g22"><path
               d="m 245.2,456.612 v -51.037 c 0,-3.324 2.468,-5.683 5.683,-5.683 v 0 h 13.618 c 11.362,0 19.083,7.933 19.083,20.263 v 0 4.505 c 0,6.111 -2.571,11.151 -6.969,14.474 v 0 c 3.647,3.003 5.791,7.614 5.683,13.189 v 0 4.289 c 0,12.008 -7.506,19.944 -18.656,19.944 v 0 c -10.936,0 -18.442,-7.936 -18.442,-19.944 m 13.404,1.178 c 0,3.861 1.824,6.326 4.931,6.326 v 0 c 3.323,0 5.36,-2.465 5.36,-6.326 v 0 -6.968 c 0,-4.183 -1.931,-6.649 -5.146,-6.649 v 0 h -5.145 z m 0,-25.518 h 5.572 c 3.647,0 5.791,-2.679 5.791,-7.182 v 0 -6.006 c 0,-4.396 -2.144,-6.969 -5.791,-6.969 v 0 h -5.572 z"
               style="fill:url(#linearGradient30);stroke:none"
               id="path32" /></g></g></g></g><g
       id="g34"><g
         id="g36"><g
           id="g42"><g
             id="g44"><path
               d="m 296.117,452.101 c -1.286,0 -1.93,-0.644 -1.93,-1.825 v 0 -48.025 c 0,-1.287 0.644,-1.93 1.93,-1.93 v 0 h 9.543 c 1.179,0 1.93,0.643 1.93,1.93 v 0 48.025 c 0,1.181 -0.751,1.825 -1.93,1.825 v 0 z"
               style="fill:url(#linearGradient52);stroke:none"
               id="path54" /></g></g></g></g><g
       id="g56"><g
         id="g58"><g
           id="g64"><g
             id="g66"><path
               d="m 319.696,456.505 v -37.206 c 0,-12.117 7.827,-20.266 19.408,-20.266 v 0 c 11.687,0 19.621,8.149 19.621,19.944 v 0 17.049 c 0,3.644 -1.93,5.681 -5.577,5.681 v 0 h -12.007 c -1.286,0 -1.931,-0.642 -1.931,-1.93 v 0 -7.718 c 0,-1.288 0.645,-1.93 1.931,-1.93 v 0 h 4.292 v -12.117 c 0,-3.86 -2.362,-6.433 -6.009,-6.433 v 0 c -3.749,0 -6.217,2.573 -6.217,6.755 v 0 39.136 c 0,4.074 2.037,6.646 5.576,6.646 v 0 c 3.216,0 5.466,-2.572 5.684,-8.469 v 0 c 0.107,-1.18 0.854,-1.823 2.037,-1.823 v 0 h 9.647 c 1.182,0 1.822,0.643 1.822,1.93 v 0 c -0.319,12.759 -8.254,20.909 -19.19,20.909 v 0 c -11.474,0 -19.087,-8.15 -19.087,-20.158"
               style="fill:url(#linearGradient74);stroke:none"
               id="path76" /></g></g></g></g><g
       id="g78"><g
         id="g80"><g
           id="g86"><g
             id="g88"><path
               d="m 467.301,456.29 v -54.039 c 0,-1.287 0.645,-1.93 1.93,-1.93 v 0 h 9.651 c 1.179,0 1.823,0.643 1.823,1.93 v 0 21.123 h 11.581 v -21.123 c 0,-1.287 0.748,-1.93 1.93,-1.93 v 0 h 9.646 c 1.183,0 1.93,0.643 1.93,1.93 v 0 54.039 c 0,12.223 -7.719,20.266 -19.297,20.266 v 0 c -11.473,0 -19.194,-8.043 -19.194,-20.266 m 13.404,0.965 c 0,4.183 2.143,6.755 5.79,6.755 v 0 c 3.642,0 5.791,-2.572 5.791,-6.755 v 0 -21.552 h -11.581 z"
               style="fill:url(#linearGradient96);stroke:none"
               id="path98" /></g></g></g></g><g
       id="g100"><g
         id="g102"><g
           id="g108"><g
             id="g110"><path
               d="m 545.559,475.375 c -1.071,0 -1.823,-0.535 -1.929,-1.714 v 0 l -8.041,-57.043 -8.148,57.043 c -0.111,1.179 -0.858,1.714 -1.929,1.714 v 0 H 515.43 c -1.179,0 -1.823,-0.642 -1.606,-1.93 v 0 l 11.688,-68.405 c 0.533,-3.325 2.57,-5.256 6.004,-5.256 v 0 h 8.039 c 3.429,0 5.471,1.824 6.004,5.256 v 0 l 11.688,68.405 c 0.214,1.288 -0.427,1.93 -1.717,1.93 v 0 z"
               style="fill:url(#linearGradient118);stroke:none"
               id="path120" /></g></g></g></g><g
       id="g122"><g
         id="g124"><g
           id="g130"><g
             id="g132"><path
               d="m 583.504,475.805 c -11.581,0 -19.301,-8.15 -19.301,-20.051 v 0 -35.705 c 0,-12.008 7.72,-20.157 19.301,-20.157 v 0 h 11.256 c 1.183,0 1.93,0.642 1.93,1.823 v 0 8.686 c 0,1.178 -0.747,1.821 -1.93,1.821 v 0 h -9.646 c -4.612,0 -7.4,3.217 -7.4,8.149 v 0 11.795 h 14.369 c 1.285,0 1.93,0.642 1.93,1.93 v 0 8.15 c 0,1.178 -0.645,1.927 -1.93,1.927 v 0 h -14.369 v 11.152 c 0,4.931 2.788,8.149 7.4,8.149 v 0 h 9.646 c 1.183,0 1.93,0.642 1.93,1.93 v 0 8.577 c 0,1.181 -0.747,1.824 -1.93,1.824 v 0 z"
               style="fill:url(#linearGradient140);stroke:none"
               id="path142" /></g></g></g></g><g
       id="g144"><g
         id="g146"><g
           id="g152"><g
             id="g154"><path
               d="m 527.081,497.236 c -13.079,-19.638 -30.328,-8.549 -31.98,-7.49 v 0 c -11.004,7.699 -16.069,8.761 -22.505,8.864 v 0 c -32.815,0.523 -31.009,-29.859 -31.009,-29.859 v 0 -50.203 c 0,-4.396 -1.824,-6.862 -5.252,-6.862 v 0 c -3.109,0 -5.146,2.466 -5.146,6.862 v 0 55.004 c 0,1.181 -0.645,1.823 -1.93,1.823 v 0 h -9.437 c -1.008,0 -1.823,-0.816 -1.823,-1.823 v 0 -55.004 c 0,-4.396 -2.037,-6.862 -5.253,-6.862 v 0 c -3.326,0 -5.145,2.466 -5.145,6.862 v 0 55.004 c 0,1.181 -0.645,1.823 -1.93,1.823 v 0 h -9.438 c -1.285,0 -1.93,-0.642 -1.93,-1.823 v 0 -54.04 c 0,-12.33 7.294,-20.479 18.443,-20.479 v 0 c 5.039,0 8.792,1.931 11.794,4.826 v 0 c 3.002,-2.895 6.756,-4.826 11.795,-4.826 v 0 c 11.256,0 18.55,8.149 18.55,20.479 v 0 48.195 c 0,10.273 3.289,21.226 19.319,21.158 v 0 c 0.179,-0.001 0.731,10e-4 1.904,-0.041 v 0 c 3.441,-0.123 9.136,-2.412 14.572,-5.6 v 0 c 0.243,-0.142 22.091,-12.84 38.119,11.195 v 0 c 1.261,1.89 2.263,3.492 1.191,4.237 v 0 c -0.262,0.181 -0.521,0.256 -0.77,0.256 v 0 c -1.179,0 -2.139,-1.676 -2.139,-1.676"
               style="fill:url(#linearGradient162);stroke:none"
               id="path164" /></g></g></g></g><g
       id="g166"><g
         id="g168"
         clip-path="url(#clipPath172)"><g
           id="g174"
           transform="translate(313.6841,470.8093)"><path
             d="m 0,0 c 0,-7.067 -5.729,-12.796 -12.795,-12.796 -7.068,0 -12.796,5.729 -12.796,12.796 0,7.067 5.728,12.796 12.796,12.796 C -5.729,12.796 0,7.067 0,0"
             style="fill:#fab510;fill-opacity:1;fill-rule:nonzero;stroke:none"
             id="path176" /></g></g></g><g
       id="g178"><g
         id="g180"><g
           id="g186"><g
             id="g188"><path
               d="M 0,0 H 841.89 V 297.638 H 0 Z"
               style="fill:url(#linearGradient196);stroke:none"
               id="path198" /></g></g></g></g><g
       id="g200"><g
         id="g202"
         clip-path="url(#clipPath206)"><g
           id="g208"
           transform="translate(269.9663,123.4133)"><path
             d="m 0,0 c 0,-4.396 -2.143,-6.969 -5.79,-6.969 h -5.572 V 13.188 H -5.79 C -2.143,13.188 0,10.509 0,6.006 Z m -11.362,38.707 c 0,3.86 1.823,6.326 4.931,6.326 3.323,0 5.36,-2.466 5.36,-6.326 v -6.969 c 0,-4.182 -1.931,-6.648 -5.146,-6.648 h -5.145 z M 6.649,20.051 c 3.647,3.002 5.79,7.614 5.684,13.188 v 4.289 c 0,12.008 -7.507,19.945 -18.657,19.945 -10.936,0 -18.443,-7.937 -18.443,-19.945 v -51.036 c 0,-3.325 2.469,-5.684 5.684,-5.684 h 13.618 c 11.362,0 19.083,7.934 19.083,20.264 v 4.505 c 0,6.111 -2.571,11.15 -6.969,14.474"
             style="fill:#ffffff;fill-opacity:1;fill-rule:nonzero;stroke:none"
             id="path210" /></g><g
           id="g212"
           transform="translate(305.6602,156.4299)"><path
             d="m 0,0 h -9.543 c -1.286,0 -1.931,-0.643 -1.931,-1.823 V -49.85 c 0,-1.287 0.645,-1.929 1.931,-1.929 H 0 c 1.179,0 1.93,0.642 1.93,1.929 V -1.823 C 1.93,-0.643 1.179,0 0,0"
             style="fill:#ffffff;fill-opacity:1;fill-rule:nonzero;stroke:none"
             id="path214" /></g><g
           id="g216"
           transform="translate(353.1484,146.0373)"><path
             d="m 0,0 h -12.008 c -1.285,0 -1.93,-0.644 -1.93,-1.931 v -7.717 c 0,-1.289 0.645,-1.931 1.93,-1.931 h 4.292 v -12.116 c 0,-3.861 -2.362,-6.434 -6.008,-6.434 -3.75,0 -6.217,2.573 -6.217,6.756 v 39.136 c 0,4.074 2.036,6.646 5.576,6.646 3.216,0 5.466,-2.572 5.684,-8.47 0.107,-1.18 0.854,-1.823 2.037,-1.823 h 9.646 c 1.183,0 1.823,0.643 1.823,1.93 -0.32,12.76 -8.254,20.909 -19.19,20.909 -11.474,0 -19.088,-8.149 -19.088,-20.157 v -37.206 c 0,-12.116 7.828,-20.267 19.409,-20.267 11.687,0 19.621,8.151 19.621,19.945 V -5.682 C 5.577,-2.037 3.647,0 0,0"
             style="fill:#ffffff;fill-opacity:1;fill-rule:nonzero;stroke:none"
             id="path218" /></g><g
           id="g220"
           transform="translate(492.2861,140.0334)"><path
             d="m 0,0 h -11.581 v 21.551 c 0,4.182 2.143,6.756 5.79,6.756 3.643,0 5.791,-2.574 5.791,-6.756 z m -5.791,40.853 c -11.474,0 -19.194,-8.043 -19.194,-20.267 v -54.039 c 0,-1.287 0.645,-1.93 1.93,-1.93 h 9.651 c 1.178,0 1.823,0.643 1.823,1.93 V -12.33 H 0 v -21.123 c 0,-1.287 0.747,-1.93 1.93,-1.93 h 9.646 c 1.183,0 1.93,0.643 1.93,1.93 v 54.039 c 0,12.224 -7.72,20.267 -19.297,20.267"
             style="fill:#ffffff;fill-opacity:1;fill-rule:nonzero;stroke:none"
             id="path222" /></g><g
           id="g224"
           transform="translate(555.5303,179.7053)"><path
             d="m 0,0 h -9.971 c -1.071,0 -1.823,-0.536 -1.929,-1.715 l -8.041,-57.043 -8.148,57.043 C -28.2,-0.536 -28.947,0 -30.019,0 h -10.082 c -1.178,0 -1.823,-0.643 -1.605,-1.931 l 11.687,-68.405 c 0.534,-3.324 2.571,-5.255 6.004,-5.255 h 8.04 c 3.429,0 5.471,1.823 6.004,5.255 L 1.717,-1.931 C 1.931,-0.643 1.29,0 0,0"
             style="fill:#ffffff;fill-opacity:1;fill-rule:nonzero;stroke:none"
             id="path226" /></g><g
           id="g228"
           transform="translate(585.1143,167.8039)"><path
             d="m 0,0 h 9.646 c 1.183,0 1.93,0.643 1.93,1.931 v 8.576 c 0,1.181 -0.747,1.823 -1.93,1.823 H -1.61 c -11.581,0 -19.301,-8.149 -19.301,-20.051 v -35.705 c 0,-12.007 7.72,-20.157 19.301,-20.157 H 9.646 c 1.183,0 1.93,0.644 1.93,1.824 v 8.686 c 0,1.177 -0.747,1.82 -1.93,1.82 H 0 c -4.612,0 -7.4,3.218 -7.4,8.15 v 11.794 H 6.969 c 1.285,0 1.929,0.643 1.929,1.93 v 8.15 c 0,1.178 -0.644,1.928 -1.929,1.928 H -7.4 V -8.149 C -7.4,-3.218 -4.612,0 0,0"
             style="fill:#ffffff;fill-opacity:1;fill-rule:nonzero;stroke:none"
             id="path230" /></g><g
           id="g232"
           transform="translate(474.2041,193.1945)"><path
             d="m 0,0 c 0.179,-0.001 0.731,0.002 1.904,-0.041 3.441,-0.123 9.136,-2.412 14.572,-5.599 0.243,-0.143 22.091,-12.841 38.119,11.195 1.26,1.889 2.263,3.492 1.191,4.236 -1.5,1.041 -2.909,-1.42 -2.909,-1.42 C 39.798,-11.268 22.549,-0.177 20.896,0.881 9.894,8.58 4.828,9.643 -1.607,9.745 c -32.816,0.523 -31.01,-29.859 -31.01,-29.859 v -50.202 c 0,-4.397 -1.823,-6.863 -5.252,-6.863 -3.11,0 -5.146,2.466 -5.146,6.863 v 55.003 c 0,1.181 -0.645,1.824 -1.93,1.824 h -9.437 c -1.008,0 -1.824,-0.817 -1.824,-1.824 v -55.003 c 0,-4.397 -2.036,-6.863 -5.252,-6.863 -3.326,0 -5.146,2.466 -5.146,6.863 v 55.003 c 0,1.181 -0.644,1.824 -1.929,1.824 h -9.438 c -1.285,0 -1.929,-0.643 -1.929,-1.824 v -54.039 c 0,-12.33 7.293,-20.48 18.442,-20.48 5.039,0 8.792,1.931 11.794,4.826 3.002,-2.895 6.756,-4.826 11.795,-4.826 11.256,0 18.55,8.15 18.55,20.48 v 48.194 C -19.319,-10.885 -16.03,0.068 0,0"
             style="fill:#ffffff;fill-opacity:1;fill-rule:nonzero;stroke:none"
             id="path234" /></g><g
           id="g236"
           transform="translate(313.6841,175.1389)"><path
             d="m 0,0 c 0,-7.066 -5.729,-12.796 -12.795,-12.796 -7.068,0 -12.796,5.73 -12.796,12.796 0,7.067 5.728,12.796 12.796,12.796 C -5.729,12.796 0,7.067 0,0"
             style="fill:#fab510;fill-opacity:1;fill-rule:nonzero;stroke:none"
             id="path238" /></g></g></g></g></svg>
